<?xml version="1.0" standalone="no"?>
<!DOCTYPE svg PUBLIC "-//W3C//DTD SVG 20010904//EN"
 "http://www.w3.org/TR/2001/REC-SVG-20010904/DTD/svg10.dtd">
<svg version="1.0" xmlns="http://www.w3.org/2000/svg"
 width="544.000000pt" height="544.000000pt" viewBox="0 0 544.000000 544.000000"
 preserveAspectRatio="xMidYMid meet">

<g transform="translate(0.000000,544.000000) scale(0.100000,-0.100000)"
fill="#000000" stroke="none">
<path d="M2418 5395 c-2 -3 -23 -6 -45 -9 -23 -2 -47 -7 -54 -11 -8 -6 -10 -4
-4 5 5 9 4 11 -3 6 -12 -7 -23 -10 -83 -20 -38 -6 -71 -13 -109 -21 -14 -4
-36 -8 -50 -11 -14 -3 -43 -10 -65 -16 -22 -6 -47 -13 -55 -15 -33 -8 -45 -12
-47 -13 -2 -2 -7 -4 -13 -5 -5 -1 -12 -4 -15 -5 -3 -1 -11 -3 -17 -4 -18 -2
-13 -46 14 -125 7 -20 13 -38 13 -41 9 -36 19 -67 24 -75 3 -5 6 -14 7 -20 6
-30 112 -305 155 -400 12 -27 23 -52 24 -55 8 -24 35 -81 95 -200 82 -163 92
-183 103 -191 5 -3 8 -9 7 -13 -3 -15 65 -124 74 -119 5 3 6 1 2 -5 -18 -29
365 -570 558 -787 15 -16 41 -47 58 -67 17 -20 36 -34 41 -31 6 3 7 2 4 -4 -7
-11 316 -336 326 -328 4 3 5 2 2 -1 -2 -4 5 -16 18 -26 12 -11 36 -32 52 -46
138 -123 415 -333 428 -325 6 3 7 2 4 -3 -3 -5 66 -57 154 -114 88 -58 162
-103 163 -100 1 3 9 -2 18 -10 16 -17 218 -130 231 -129 4 0 15 -7 23 -16 9
-8 20 -13 25 -10 5 4 9 1 9 -5 0 -6 4 -8 10 -5 6 3 10 2 10 -3 0 -13 70 -43
82 -36 7 5 8 2 3 -6 -6 -10 -4 -12 11 -6 10 4 15 4 12 0 -10 -10 112 -65 125
-57 7 3 9 2 4 -2 -6 -7 155 -84 188 -89 5 -1 20 -8 33 -14 12 -7 22 -10 22 -6
0 3 6 2 13 -3 6 -6 54 -25 105 -43 78 -28 95 -31 103 -19 24 38 114 351 133
464 16 91 17 105 7 105 -5 0 -22 5 -38 12 -15 6 -31 12 -35 13 -5 2 -11 4 -15
5 -5 1 -11 2 -15 1 -5 0 -8 4 -8 10 0 5 -4 8 -9 4 -5 -3 -12 -1 -16 5 -4 6
-11 8 -16 5 -5 -4 -9 -1 -9 4 0 6 -3 10 -7 10 -25 -4 -43 2 -37 13 4 6 3 8 -3
5 -12 -8 -114 31 -125 48 -4 5 -8 6 -8 2 0 -4 -10 -2 -22 5 -13 7 -26 11 -30
10 -5 -1 -8 3 -8 9 0 5 -4 7 -10 4 -5 -3 -10 -1 -10 6 0 7 -3 10 -6 6 -7 -7
-60 18 -88 42 -11 9 -17 11 -13 5 4 -6 -20 3 -52 20 -33 17 -57 34 -55 38 3 4
-2 5 -10 2 -10 -4 -16 -1 -16 7 0 7 -3 9 -7 6 -3 -4 -12 1 -20 11 -9 10 -12
11 -7 2 4 -8 -5 -4 -21 10 -16 14 -25 18 -21 10 6 -12 4 -11 -6 1 -7 9 -15 16
-18 17 -16 1 -60 27 -60 34 0 5 -4 7 -8 4 -5 -3 -26 9 -47 27 -22 18 -36 25
-31 17 4 -8 -2 -4 -14 10 -12 14 -18 19 -14 11 8 -15 -53 25 -74 49 -12 13
-13 13 -7 0 4 -8 -3 -4 -15 10 -12 14 -25 25 -29 25 -3 0 -5 3 -4 7 2 4 -4 5
-12 2 -8 -4 -15 -1 -15 7 0 7 -3 9 -6 6 -4 -4 -18 6 -32 21 -13 15 -21 20 -17
12 8 -14 -42 25 -57 45 -4 6 -8 6 -8 1 0 -5 -14 7 -31 25 -18 19 -26 25 -19
14 7 -11 -2 -4 -20 15 -18 19 -29 28 -26 20 4 -8 -2 -4 -13 9 -12 13 -21 20
-21 16 0 -5 -9 2 -20 15 -11 13 -20 20 -20 16 0 -4 -6 -1 -14 6 -8 7 -11 17
-8 22 3 5 0 6 -6 2 -6 -3 -18 4 -26 16 -9 12 -16 19 -16 15 0 -4 -6 -2 -14 5
-8 7 -11 17 -8 22 3 5 1 6 -5 3 -5 -3 -34 17 -63 46 -30 29 -58 51 -62 49 -4
-1 -8 5 -8 15 0 9 -3 14 -6 10 -8 -8 -83 66 -77 76 2 4 -1 6 -9 5 -7 -2 -12 3
-10 10 1 6 -4 11 -10 10 -7 -2 -12 3 -10 10 1 6 -2 11 -6 10 -11 -4 -112 98
-112 112 0 6 -4 8 -10 5 -5 -3 -10 1 -10 10 0 10 -5 13 -12 9 -8 -5 -9 -2 -5
9 4 10 2 16 -6 14 -7 -1 -10 5 -9 13 2 8 0 12 -4 8 -7 -7 -79 68 -79 83 0 4
-4 11 -9 16 -5 5 -6 2 -1 -7 4 -8 -6 1 -23 20 -16 19 -27 39 -24 44 3 5 0 6
-6 2 -7 -4 -12 -1 -12 9 0 9 -4 13 -10 10 -5 -3 -10 0 -10 9 0 8 -3 16 -8 18
-10 4 -72 84 -69 89 1 2 0 3 -2 2 -5 -3 -41 44 -41 54 0 5 -9 16 -20 26 -12
10 -18 23 -14 29 4 6 3 8 -2 5 -5 -3 -21 11 -34 31 -14 20 -29 40 -35 44 -7 5
-7 8 0 8 6 0 6 3 -1 8 -20 14 -63 85 -57 95 3 6 1 7 -5 3 -11 -7 -17 6 -13 27
1 5 -3 6 -8 3 -5 -4 -13 4 -17 16 -3 12 -19 39 -35 61 -16 22 -29 44 -29 49 0
5 -11 24 -25 42 -14 18 -22 36 -18 39 3 4 1 7 -6 7 -8 0 -11 6 -7 16 3 8 2 13
-3 10 -10 -6 -38 53 -33 69 2 6 0 7 -4 2 -8 -7 -50 71 -46 86 1 4 -2 7 -7 7
-8 0 -17 21 -19 44 0 5 -4 12 -9 15 -16 12 -53 103 -47 114 4 7 4 9 -1 5 -7
-7 -41 53 -49 87 -2 6 -10 27 -20 48 -36 82 -44 106 -38 111 3 3 -1 6 -8 6 -7
0 -10 3 -7 7 4 3 2 12 -4 20 -6 7 -8 13 -4 13 4 0 3 6 -2 13 -10 12 -81 219
-88 255 -2 9 -4 19 -5 22 -1 3 -2 8 -1 13 1 8 -3 9 -11 2z"/>
<path d="M3138 5358 c-20 -58 -15 -461 8 -569 2 -13 7 -40 10 -59 3 -19 7 -43
10 -52 3 -9 7 -26 9 -37 3 -12 7 -31 10 -42 2 -12 12 -47 21 -78 10 -31 18
-60 19 -66 14 -64 147 -353 169 -367 6 -4 8 -8 4 -8 -19 0 159 -253 242 -344
123 -137 324 -311 344 -299 5 3 6 2 3 -4 -6 -9 180 -131 191 -125 2 2 8 -1 11
-6 9 -13 111 -64 111 -55 0 5 4 3 8 -3 7 -10 148 -72 181 -79 9 -2 42 -13 74
-24 31 -11 57 -18 57 -15 0 3 8 0 18 -5 9 -5 34 -12 56 -15 21 -4 41 -8 45
-10 3 -2 26 -7 51 -10 25 -3 56 -8 70 -11 79 -16 346 -24 468 -14 l42 3 -5 36
c-5 35 -10 59 -20 110 -2 14 -7 36 -9 50 -9 46 -15 70 -36 148 -12 42 -23 84
-25 92 -2 8 -4 16 -5 18 -2 1 -3 5 -4 10 -1 4 -5 13 -9 20 -5 6 -6 12 -2 12 3
0 -1 13 -10 30 -8 16 -15 32 -15 35 3 23 -23 30 -115 31 -138 2 -193 10 -347
50 -13 3 -29 6 -35 6 -7 1 -13 4 -13 8 0 4 -7 7 -15 8 -8 1 -22 3 -30 4 -8 1
-15 5 -15 10 0 5 -4 7 -9 3 -5 -3 -12 -1 -16 5 -4 6 -11 8 -16 5 -5 -4 -9 -1
-9 6 0 7 -3 9 -7 6 -3 -4 -12 -2 -20 4 -7 6 -13 8 -13 3 0 -4 -7 1 -16 12 -8
10 -12 12 -8 4 5 -10 0 -9 -14 4 -12 11 -22 15 -22 11 0 -5 -7 0 -16 11 -8 10
-13 12 -9 4 4 -10 2 -9 -8 2 -8 10 -17 15 -20 11 -4 -3 -7 0 -7 7 0 7 -3 10
-7 7 -3 -4 -12 1 -20 11 -10 11 -12 12 -8 2 4 -8 -3 -4 -15 10 -12 14 -18 18
-14 10 8 -15 -33 14 -48 35 -4 6 -8 6 -8 1 0 -5 -14 7 -31 25 -18 19 -26 25
-18 14 7 -11 -4 -4 -26 15 -21 19 -44 40 -51 46 -7 7 -10 15 -6 19 4 4 0 5 -8
3 -8 -2 -14 3 -12 10 1 8 -2 11 -6 8 -12 -7 -44 28 -35 39 5 4 3 5 -3 2 -13
-8 -91 82 -86 98 2 5 0 7 -3 3 -8 -8 -45 33 -45 49 0 5 -11 20 -24 32 -14 13
-30 36 -36 52 -7 16 -17 29 -23 29 -6 0 -7 3 -4 7 4 3 -1 15 -10 26 -13 15
-14 19 -3 13 8 -4 7 -1 -3 7 -10 8 -19 24 -20 35 0 11 -4 19 -7 17 -7 -4 -35
65 -32 78 1 4 -3 7 -9 7 -5 0 -8 4 -4 9 3 5 1 12 -5 16 -6 4 -8 11 -5 16 4 5
1 9 -6 9 -7 0 -10 3 -7 6 4 3 0 21 -8 40 -8 19 -14 36 -14 39 0 3 0 6 -1 8 0
1 -2 9 -4 17 -2 8 -7 26 -10 40 -7 27 -12 51 -20 90 -13 60 -19 143 -20 247 0
62 -4 113 -8 113 -5 0 -5 5 -1 12 4 6 3 8 -4 4 -6 -3 -23 -1 -39 6 -15 6 -31
12 -35 13 -5 2 -11 4 -15 5 -5 1 -11 2 -15 1 -5 0 -8 3 -8 9 0 6 -3 9 -7 9 -5
-1 -10 0 -13 1 -10 3 -45 11 -57 12 -7 1 -13 4 -13 8 0 4 -6 7 -12 8 -23 2
-43 7 -55 15 -7 5 -13 6 -13 2 0 -3 -10 0 -22 6 -13 7 -34 14 -48 15 -14 2
-35 5 -47 8 -45 11 -66 16 -144 31 -17 3 -29 0 -31 -7z"/>
<path d="M4190 4948 c0 -2 -9 -31 -21 -63 -28 -79 -29 -88 -33 -175 -7 -163
51 -306 172 -428 40 -40 77 -70 82 -67 6 4 10 2 10 -3 0 -10 104 -60 140 -68
14 -3 36 -8 50 -12 14 -3 68 -6 120 -7 73 0 112 6 168 24 39 13 72 28 72 34 0
11 -100 152 -131 186 -11 12 -18 21 -15 21 3 0 -12 19 -34 42 -21 23 -36 47
-33 53 4 5 3 7 0 4 -9 -8 -263 244 -258 255 2 5 -1 6 -7 2 -6 -3 -15 2 -21 11
-6 10 -11 14 -11 9 0 -4 -13 6 -30 24 -16 18 -30 29 -30 26 0 -4 -12 5 -27 19
-15 14 -31 25 -36 25 -4 0 -5 5 -2 10 4 6 3 10 -2 9 -17 -4 -43 14 -36 25 3 6
3 8 -2 4 -4 -4 -20 1 -34 11 -34 23 -51 33 -51 29z"/>
<path d="M995 4805 c-108 -88 -241 -217 -325 -314 -30 -35 -61 -69 -67 -77
-10 -10 11 -37 109 -136 518 -527 744 -753 750 -751 5 2 7 -3 5 -10 -1 -6 4
-11 10 -10 7 2 12 -3 10 -10 -1 -6 4 -11 10 -10 7 2 12 -3 10 -10 -1 -6 4 -11
10 -10 7 2 12 -3 10 -10 -1 -6 4 -11 10 -10 7 2 12 -3 10 -10 -1 -6 4 -11 10
-10 7 2 12 -1 10 -6 -3 -11 595 -617 606 -613 4 1 6 -4 5 -10 -2 -7 3 -12 10
-10 6 1 11 -4 10 -10 -2 -7 3 -12 10 -10 6 1 11 -2 10 -6 -2 -5 254 -269 567
-586 314 -318 643 -652 731 -742 89 -90 165 -160 169 -156 3 4 5 0 3 -8 -2 -8
3 -14 9 -13 7 2 12 -3 10 -10 -1 -6 4 -11 10 -10 7 2 12 -3 10 -10 -1 -6 4
-11 10 -10 7 2 12 -1 10 -6 -2 -8 597 -621 609 -621 22 0 235 196 338 311 22
24 51 56 65 72 l25 27 -57 58 c-32 32 -54 62 -50 66 5 4 1 6 -7 4 -8 -2 -14 3
-13 9 2 7 -3 12 -10 10 -6 -1 -11 4 -10 10 2 7 -3 12 -10 10 -6 -1 -11 4 -10
10 2 7 -3 12 -10 10 -6 -1 -11 4 -10 10 2 7 -3 12 -10 10 -6 -1 -11 4 -10 10
2 7 -3 12 -10 10 -6 -1 -11 5 -9 13 2 8 1 12 -3 8 -7 -7 -345 330 -345 345 0
6 -3 8 -6 4 -8 -8 -34 18 -34 33 0 6 -4 8 -10 5 -6 -3 -10 1 -10 10 0 9 -4 13
-10 10 -5 -3 -10 1 -10 10 0 9 -4 14 -9 10 -5 -3 -13 4 -16 16 -4 11 -9 19
-11 16 -7 -6 -189 184 -187 194 2 5 -3 8 -10 6 -6 -1 -11 4 -10 10 2 7 -3 12
-10 10 -6 -1 -11 4 -10 10 2 7 -3 12 -10 10 -6 -1 -11 4 -10 10 2 7 -3 12 -10
10 -6 -1 -11 4 -10 10 2 7 -3 12 -10 10 -6 -1 -11 4 -9 11 1 8 -1 11 -6 8 -10
-6 -212 198 -212 215 0 5 -4 7 -10 4 -5 -3 -10 1 -10 10 0 9 -4 13 -10 10 -5
-3 -10 1 -10 10 0 9 -4 13 -10 10 -5 -3 -10 1 -10 10 0 9 -4 14 -9 10 -5 -3
-13 4 -16 16 -4 11 -9 18 -12 15 -3 -2 -23 15 -44 40 -21 25 -39 43 -39 41 0
-2 -60 57 -132 130 -73 74 -132 139 -130 144 1 5 -4 8 -10 7 -7 -2 -12 3 -10
10 1 6 -4 11 -10 10 -7 -2 -12 3 -10 10 1 6 -4 11 -10 10 -7 -2 -12 3 -10 10
1 6 -4 11 -10 10 -7 -2 -12 3 -10 10 1 6 -4 11 -10 10 -7 -2 -12 3 -10 10 1 8
-1 11 -6 8 -10 -6 -232 219 -232 235 0 6 -4 7 -10 4 -5 -3 -10 1 -10 10 0 9
-4 13 -10 10 -5 -3 -10 1 -10 10 0 9 -4 13 -10 10 -5 -3 -10 1 -10 10 0 9 -4
13 -10 10 -5 -3 -10 1 -10 10 0 9 -4 13 -10 10 -5 -3 -10 1 -10 10 0 9 -4 13
-10 10 -5 -3 -10 1 -10 10 0 9 -4 13 -10 10 -5 -3 -10 1 -10 10 0 9 -4 13 -10
10 -5 -3 -10 1 -10 10 0 9 -5 13 -10 10 -6 -3 -10 1 -10 10 0 9 -4 13 -10 10
-5 -3 -10 1 -10 10 0 9 -4 13 -10 10 -5 -3 -10 1 -10 10 0 9 -4 13 -10 10 -5
-3 -10 0 -10 8 0 8 -29 40 -65 72 -36 31 -62 61 -59 66 3 5 0 8 -8 7 -7 -2
-12 3 -10 10 1 6 -4 11 -10 10 -7 -2 -12 3 -10 10 1 6 -1 11 -6 10 -10 -4
-352 340 -352 354 0 6 -3 9 -6 5 -8 -8 -34 18 -34 33 0 6 -5 8 -10 5 -5 -3
-10 1 -10 10 0 9 -4 13 -10 10 -5 -3 -10 1 -10 10 0 9 -4 13 -10 10 -5 -3 -10
1 -10 10 0 9 -4 13 -10 10 -5 -3 -10 1 -10 10 0 9 -4 14 -9 10 -5 -3 -13 4
-16 16 -4 11 -9 19 -11 16 -7 -6 -149 144 -147 154 2 5 -3 8 -10 6 -6 -1 -11
4 -10 10 2 7 -3 12 -10 10 -6 -1 -11 4 -10 10 2 7 -3 12 -10 10 -6 -1 -11 4
-10 10 2 7 -3 12 -10 10 -6 -1 -11 4 -10 10 2 7 -3 12 -10 10 -6 -1 -11 4 -10
10 2 7 -1 12 -6 10 -11 -3 -597 593 -593 604 1 5 -4 8 -10 7 -7 -2 -12 3 -10
10 3 16 2 16 -33 -13z"/>
<path d="M1590 4245 c19 -19 36 -35 39 -35 3 0 -10 16 -29 35 -19 19 -36 35
-39 35 -3 0 10 -16 29 -35z"/>
<path d="M121 3513 c-29 -92 -63 -229 -75 -298 -3 -16 -8 -41 -11 -55 -3 -14
-8 -50 -11 -81 l-6 -56 137 -47 c178 -62 364 -140 536 -227 77 -38 142 -69
145 -68 4 0 10 -4 13 -9 7 -10 67 -43 77 -41 4 0 10 -3 13 -8 3 -5 35 -27 71
-48 36 -21 90 -55 120 -74 30 -20 58 -34 62 -33 5 1 8 -2 8 -8 0 -12 61 -45
75 -41 6 1 7 -1 3 -5 -4 -3 25 -29 64 -57 94 -66 277 -214 383 -309 23 -21 45
-34 49 -30 4 4 6 3 5 -3 -4 -13 263 -279 276 -276 6 1 7 -1 3 -5 -4 -4 11 -28
35 -53 319 -347 640 -858 824 -1311 39 -98 66 -165 64 -165 0 0 13 -36 29 -80
l28 -80 43 1 c46 1 72 5 184 28 11 2 58 14 105 26 47 12 90 23 97 24 7 1 16 5
19 9 4 4 13 7 20 7 7 0 38 9 69 21 46 17 54 23 44 35 -6 8 -9 14 -5 14 4 0 0
14 -9 30 -9 17 -13 30 -10 30 3 0 -1 14 -10 30 -9 17 -13 30 -9 30 4 0 2 6 -3
12 -12 17 -68 171 -65 181 1 4 -3 7 -8 7 -5 0 -9 3 -9 8 1 4 0 10 -1 15 -1 4
-3 10 -5 15 -1 4 -12 30 -25 57 -12 28 -23 56 -23 63 0 6 -4 12 -9 12 -5 0 -6
5 -3 10 3 6 1 10 -4 10 -6 0 -10 3 -9 8 1 4 -9 30 -22 57 -13 28 -24 52 -25
55 0 3 -25 52 -55 110 -30 58 -53 108 -52 113 1 4 -3 7 -9 7 -6 0 -8 7 -5 17
4 10 4 14 0 10 -7 -7 -106 159 -107 180 0 7 -4 10 -8 7 -8 -4 -25 35 -21 49 1
5 -1 6 -6 3 -8 -5 -68 94 -64 107 1 5 -2 6 -7 3 -5 -4 -13 4 -17 16 -4 13 -20
38 -36 56 -15 18 -25 38 -22 44 4 6 3 8 -3 5 -5 -4 -16 6 -24 21 -8 15 -31 48
-51 73 -21 25 -38 49 -38 55 0 5 -12 20 -25 33 -14 12 -22 28 -18 35 3 6 3 8
-2 4 -7 -7 -55 43 -55 57 0 4 -16 23 -35 42 -19 19 -32 40 -28 46 3 7 3 9 -2
5 -7 -7 -50 39 -50 54 0 4 -7 13 -15 20 -12 11 -12 10 0 -7 14 -18 14 -19 -2
-6 -10 7 -18 20 -18 29 0 8 -3 12 -7 9 -8 -9 -39 34 -35 48 2 6 1 7 -3 3 -9
-8 -35 16 -35 32 0 6 -4 8 -10 5 -5 -3 -10 1 -10 10 0 9 -4 13 -10 10 -9 -6
-14 8 -11 28 0 4 -5 6 -11 5 -7 -2 -12 3 -10 10 1 8 -1 12 -5 10 -11 -6 -192
180 -184 187 3 4 -1 5 -9 3 -8 -2 -14 3 -12 10 1 8 -2 11 -8 7 -5 -3 -13 1
-16 9 -3 9 -10 13 -15 10 -5 -3 -9 2 -9 11 0 9 -4 13 -10 10 -5 -3 -10 2 -10
11 0 10 -3 15 -6 11 -4 -3 -24 11 -45 32 -21 22 -40 36 -43 33 -3 -3 -6 2 -6
10 0 9 -8 22 -17 29 -17 13 -17 13 -3 -6 17 -22 -68 48 -87 73 -7 9 -13 12
-13 7 0 -4 -11 4 -25 19 -14 15 -25 24 -25 20 0 -5 -17 10 -37 32 -20 21 -33
32 -28 24 8 -15 -42 25 -57 45 -4 6 -8 6 -8 1 0 -5 -14 6 -31 25 -18 19 -28
27 -24 19 9 -15 -33 15 -47 35 -4 6 -8 6 -8 1 0 -5 -12 4 -26 20 -15 16 -23
23 -19 15 5 -9 -1 -7 -17 5 -14 10 -23 23 -20 28 3 5 0 6 -6 2 -6 -3 -17 0
-25 8 -8 8 -17 12 -21 9 -3 -4 -6 -1 -6 5 0 6 -9 14 -20 17 -11 4 -17 11 -14
17 4 6 2 8 -4 4 -6 -3 -18 1 -26 10 -9 8 -16 12 -16 7 0 -4 -10 3 -21 17 -11
14 -18 18 -14 10 4 -10 2 -9 -8 2 -8 10 -17 15 -20 11 -4 -3 -7 -1 -7 6 0 7
-4 10 -9 6 -6 -3 -14 3 -20 12 -6 10 -11 14 -11 9 0 -6 -7 -1 -16 10 -8 10
-12 12 -8 4 7 -13 6 -13 -12 0 -10 8 -22 20 -26 25 -5 6 -8 6 -8 1 0 -6 -7 -1
-16 10 -8 10 -13 12 -9 4 4 -10 2 -9 -8 2 -8 10 -17 15 -20 11 -4 -3 -7 0 -7
7 0 7 -3 10 -7 7 -3 -4 -12 1 -20 11 -8 9 -11 11 -8 4 6 -11 3 -11 -13 -1 -12
7 -19 17 -16 21 3 4 -2 5 -10 2 -9 -3 -16 -1 -16 6 0 6 -5 8 -10 5 -6 -3 -10
-1 -10 6 0 7 -3 9 -7 6 -3 -4 -15 0 -25 10 -10 9 -18 12 -18 8 0 -5 -7 0 -16
11 -8 10 -12 12 -8 4 5 -10 0 -9 -14 4 -12 11 -22 15 -22 11 0 -5 -7 0 -16 11
-8 10 -12 12 -8 5 5 -9 -4 -6 -23 7 -17 12 -33 19 -37 15 -3 -3 -6 -1 -6 6 0
7 -4 9 -10 6 -6 -3 -10 -1 -10 5 0 6 -4 8 -10 5 -5 -3 -10 -1 -10 5 0 6 -5 8
-10 5 -5 -3 -10 -1 -10 6 0 7 -3 9 -6 6 -4 -3 -16 -1 -28 5 -11 7 -24 11 -28
10 -5 -1 -8 3 -8 9 0 5 -4 8 -9 5 -5 -3 -12 1 -15 10 -3 8 -10 13 -15 10 -12
-8 -73 19 -64 28 4 4 0 4 -9 1 -9 -4 -19 -1 -23 4 -3 6 -11 9 -16 6 -5 -4 -9
-1 -9 5 0 6 -4 9 -9 5 -5 -3 -12 -1 -16 5 -4 6 -10 8 -15 5 -5 -3 -11 -1 -15
5 -4 6 -11 8 -16 5 -5 -4 -9 -1 -9 5 0 6 -4 9 -9 5 -5 -3 -12 -1 -16 5 -4 6
-11 8 -16 5 -5 -4 -9 -1 -9 5 0 6 -4 9 -9 5 -5 -3 -12 -1 -16 5 -4 6 -10 8
-15 5 -5 -3 -11 -1 -15 5 -4 6 -10 8 -15 5 -5 -3 -11 -1 -15 5 -4 6 -11 8 -16
5 -5 -4 -9 -1 -9 6 0 7 -3 9 -7 6 -3 -4 -12 -2 -20 4 -7 6 -13 8 -13 4 0 -4
-7 -2 -15 5 -8 7 -15 9 -15 5 0 -4 -7 -2 -15 5 -8 7 -15 9 -15 6 0 -4 -9 -2
-21 4 -11 6 -28 13 -37 15 -9 2 -25 6 -34 10 -14 6 -22 -9 -47 -92z"/>
<path d="M2990 2825 c19 -19 36 -35 39 -35 3 0 -10 16 -29 35 -19 19 -36 35
-39 35 -3 0 10 -16 29 -35z"/>
<path d="M207 2294 c-1 -1 -40 -4 -87 -7 -47 -3 -86 -6 -87 -6 -2 -1 2 -24 12
-71 3 -14 8 -40 11 -59 10 -62 72 -276 106 -367 l33 -89 80 -1 c87 -2 193 -10
240 -19 17 -3 39 -7 50 -9 11 -2 40 -9 65 -16 25 -7 52 -13 60 -15 27 -5 196
-72 241 -96 24 -13 47 -22 52 -21 4 1 7 -2 7 -6 0 -9 40 -30 52 -28 4 0 14 -8
22 -19 9 -11 16 -16 16 -12 0 4 10 -1 22 -12 11 -11 26 -17 32 -14 6 3 8 3 4
-2 -4 -4 14 -24 40 -43 26 -20 59 -49 73 -64 15 -15 29 -24 33 -21 3 3 6 -2 6
-12 0 -10 3 -16 6 -12 11 11 148 -154 216 -259 56 -88 145 -285 164 -367 2 -9
6 -26 9 -37 11 -42 16 -66 21 -100 3 -19 8 -48 11 -65 2 -16 6 -79 8 -139 2
-77 7 -111 17 -117 13 -8 156 -58 181 -63 7 -2 37 -10 67 -19 30 -9 67 -19 83
-22 15 -3 37 -7 50 -10 86 -19 135 -27 167 -29 22 -1 26 4 31 43 6 49 3 335
-5 395 -11 84 -24 156 -37 216 -21 89 -27 114 -29 118 -2 1 -3 5 -4 10 -1 4
-8 24 -15 44 -7 21 -9 43 -5 50 4 7 3 10 -1 5 -5 -4 -19 19 -31 50 -12 32 -28
72 -35 88 -7 17 -12 33 -11 38 1 4 -2 7 -8 7 -6 0 -9 3 -8 8 1 4 -10 30 -25
58 -14 28 -23 55 -19 59 4 5 2 5 -4 2 -11 -7 -42 49 -36 66 1 5 -2 6 -8 2 -9
-6 -14 8 -11 28 1 5 -3 6 -8 3 -5 -4 -13 4 -17 16 -4 13 -20 38 -36 56 -15 18
-25 38 -22 44 4 7 2 8 -4 4 -7 -4 -12 -1 -12 6 0 7 -14 26 -30 42 -16 16 -27
33 -23 39 3 6 1 7 -5 3 -7 -4 -12 0 -12 10 0 10 -3 14 -7 11 -6 -7 -38 31 -38
45 0 4 -7 13 -15 20 -12 11 -12 10 0 -7 8 -11 -3 -3 -23 18 -20 20 -37 42 -37
49 0 6 -3 9 -6 6 -9 -9 -84 64 -77 75 3 6 1 7 -5 3 -6 -3 -18 4 -26 16 -9 12
-16 19 -16 15 0 -4 -6 -2 -14 5 -8 7 -11 17 -8 22 3 5 1 6 -5 3 -5 -3 -21 5
-36 19 -15 14 -27 22 -27 18 0 -4 -12 6 -27 22 -15 16 -28 27 -29 24 -1 -3
-14 5 -27 17 -14 12 -28 19 -31 16 -3 -3 -8 2 -12 11 -3 9 -9 14 -13 11 -4 -2
-25 10 -46 28 -22 18 -36 25 -31 17 4 -8 0 -6 -8 4 -9 11 -16 16 -16 11 0 -4
-8 -1 -18 8 -10 10 -22 14 -25 10 -4 -3 -7 -1 -7 6 0 7 -4 10 -9 7 -5 -3 -14
1 -21 9 -7 8 -16 12 -21 9 -5 -3 -9 0 -9 6 0 6 -4 8 -10 5 -5 -3 -10 -1 -10 5
0 6 -5 8 -10 5 -5 -3 -10 -1 -10 4 0 6 -3 10 -7 9 -5 -2 -28 6 -53 16 -25 11
-48 20 -52 22 -5 1 -11 3 -15 4 -5 1 -11 2 -15 1 -5 0 -8 4 -8 11 0 6 -3 9 -6
5 -3 -3 -25 1 -47 10 -23 8 -49 16 -57 18 -8 2 -15 4 -15 5 0 1 -7 3 -15 5 -8
2 -26 7 -40 10 -51 12 -75 17 -87 18 -7 0 -13 4 -13 9 0 5 -4 6 -10 3 -5 -3
-15 -3 -21 1 -7 4 -28 8 -48 10 -20 2 -52 6 -71 9 -66 9 -337 24 -343 19z"/>
<path d="M3735 2070 c27 -27 51 -50 54 -50 3 0 -17 23 -44 50 -27 28 -51 50
-54 50 -3 0 17 -22 44 -50z"/>
<path d="M625 1249 c-56 -13 -155 -50 -155 -59 0 -8 83 -120 144 -195 49 -61
136 -153 232 -246 130 -127 382 -318 403 -305 23 15 55 150 55 236 0 106 -18
202 -45 236 -5 6 -6 14 -2 17 3 4 0 7 -7 7 -7 0 -10 3 -7 6 3 4 -2 18 -13 32
-11 13 -17 29 -13 35 3 6 1 7 -5 3 -7 -4 -12 -3 -12 2 0 11 -130 146 -130 135
0 -4 -7 1 -16 12 -8 11 -17 19 -19 18 -3 -1 -29 9 -59 23 -30 14 -64 27 -75
29 -12 3 -31 8 -43 11 -39 10 -191 12 -233 3z"/>
</g>
</svg>
